<?xml version="1.0" encoding="iso-8859-1"?>
<!-- Generator: Adobe Illustrator 19.0.0, SVG Export Plug-In . SVG Version: 6.00 Build 0)  -->
<svg version="1.1" id="Layer_1" xmlns="http://www.w3.org/2000/svg" xmlns:xlink="http://www.w3.org/1999/xlink" x="0px" y="0px"
	 viewBox="0 0 480.016 480.016" style="enable-background:new 0 0 480.016 480.016;" xml:space="preserve">

<g>
	<path style="fill:#FCE674;" d="M363,1.976c10.28,17.208,16.304,37.264,16.304,58.768c0,63.44-51.432,114.872-114.872,114.872
		c-0.144,0-0.28-0.024-0.424-0.024c20.056,33.568,56.632,56.112,98.576,56.112c63.44,0,114.872-51.432,114.872-114.872
		C477.456,53.528,426.248,2.208,363,1.976z"/>
	<polygon style="fill:#FCE674;" points="76.552,149.28 91.56,179.696 125.128,184.576 100.84,208.248 106.576,241.68 
		76.552,225.896 46.528,241.68 52.264,208.248 27.976,184.576 61.544,179.696 	"/>
	<polygon style="fill:#FCE674;" points="192.416,0.304 207.432,30.72 241,35.6 216.712,59.28 222.44,92.704 192.416,76.92 
		162.4,92.704 168.128,59.28 143.84,35.6 177.408,30.72 	"/>
</g>
<g>
</g>
<g>
</g>
<g>
</g>
<g>
</g>
<g>
</g>
<g>
</g>
<g>
</g>
<g>
</g>
<g>
</g>
<g>
</g>
<g>
</g>
<g>
</g>
<g>
</g>
<g>
</g>
<g>
</g>
</svg>
